<svg fill="#000000" height="800px" width="800px" version="1.1" id="Capa_1" xmlns="http://www.w3.org/2000/svg" xmlns:xlink="http://www.w3.org/1999/xlink" 
	 viewBox="0 0 365.827 365.827" xml:space="preserve">
<g>
	<g id="Layer_5_72_">
		<path d="M301.191,153.137c0,0-145.972,0-194.629,0c-5.625,0-5.383-4.72-5.383-4.72v-36.408c0-45.068,36.666-81.734,81.733-81.734
			c27.995,0,52.731,14.158,67.466,35.68c1.32,1.93,3.934,5.961,8.684,5.961h22c5.75,0,4.356-5.114,3.183-7.599
			C266.301,26.341,227.628,0,182.913,0C121.151,0,70.904,50.247,70.904,112.009v36.658c0,0,0.658,4.47-4.592,4.47
			c-0.42,0-1.679,0-1.679,0c-4.289,0-7.799,3.51-7.799,7.8v197.09c0,4.29,3.51,7.8,7.799,7.8h236.558c4.29,0,7.8-3.51,7.8-7.8
			c0,0,0-13.605,0-18.14c0-4.574-4.267-4.34-4.267-4.34h-33.753c-7.708,0-13.957-6.249-13.957-13.957s6.249-13.957,13.957-13.957
			h32.597c0,0,5.423,0.192,5.423-4.34c0-4.528,0-12.499,0-18.111c0-4.482-4.556-4.34-4.556-4.34h-33.464
			c-7.708,0-13.957-6.249-13.957-13.957s6.249-13.957,13.957-13.957h33.682c0,0,4.338-0.114,4.338-4.34c0-4.528,0-12.499,0-18.112
			c0-4.462-3.833-4.34-3.833-4.34h-34.186c-7.708,0-13.957-6.249-13.957-13.957s6.249-13.957,13.957-13.957h33.753
			c0,0,4.267,0.339,4.267-4.34c0-8.236,0-32.946,0-32.946C308.991,156.647,305.481,153.137,301.191,153.137z M202.719,279.27
			c0,4.925,0.021,15.365,0.021,15.365c0,10.95-8.876,19.827-19.826,19.827s-19.826-8.877-19.826-19.827
			c0,0,0.021-10.44,0.021-15.365c0-10.518-20.204-9.882-20.204-34.758c0-22.097,17.913-40.01,40.01-40.01s40.01,17.913,40.01,40.01
			C222.923,269.388,202.719,268.752,202.719,279.27z"/>
	</g>
</g>
</svg>