<svg xmlns="http://www.w3.org/2000/svg" xmlns:xlink="http://www.w3.org/1999/xlink" viewBox="0 0 359 93"><defs><style>.a82a4696-c3bc-4d6f-95cf-b1033f85947e{fill:#0f0303;}.b46bf809-b789-422c-bb02-cd3502877cd9{opacity:0.8;fill:url(#bd71f4ea-dc4a-4f69-bb49-3674d6cb035e);}</style><linearGradient id="bd71f4ea-dc4a-4f69-bb49-3674d6cb035e" x1="77.84" y1="8.01" x2="32.16" y2="87.13" gradientUnits="userSpaceOnUse"><stop offset="0" stop-color="#c39ec1"/><stop offset="0.99" stop-color="#076aab"/></linearGradient></defs><title>logo-03</title><g id="ae82850a-b469-40f9-a8d9-c63fb4bc255a" data-name="Ebene 2"><path class="a82a4696-c3bc-4d6f-95cf-b1033f85947e" d="M95.14,34.09c-6.59-5.63-11-17-21.73-20.86a5.69,5.69,0,0,0-.9-.33l-2.33-.7c-1.48-2.13-4.77-6.45-7-6.3-1.67.11-2.54,2.23-3,4.07a57,57,0,0,0-12.82-.52,22.9,22.9,0,0,0-3.18-1c-3.33-.79-5.08,0-5.78,1.62-9.83.13-16-2.23-16-2.23A31.12,31.12,0,0,0,38,12a13.12,13.12,0,0,0,2.34,6.88c-7.51,1.15-15.89,2.5-15.89,2.5a34.92,34.92,0,0,0,13.18,3.56c7.36.24,14.38-1.87,28.63,7.53C70,34.91,73.22,39.28,78,42.24c6.69,4.1,12.58,5.2,13.94,3.34C93.53,43.46,87.82,41,83,35.81c-3.82-4.12-7-9.09-10-11.82A25.17,25.17,0,0,0,56,17a14.22,14.22,0,0,0-3.56-4.58c2.2.36,4.24.81,5.78,1.15,3.84.84,10.18,1.87,15.07,4.45A31.44,31.44,0,0,1,84.74,28.69c3.82,5.47,9.7,9.92,12,10.19a3.74,3.74,0,0,0,1.66-.29c2,1.37,3.7,2.37,4.61,3.52-1.7-.45-4.24.25-6,3.78-1.4,2.81-.7,4.5.65,5.29-4.06,1.6-9.9,1.8-17.12.37-1.48-.3-11.33-2.73-12.64-3.07l.83,2.06s7.17,2,9.64,2.61a38,38,0,0,0,21.17-1.43,4.93,4.93,0,0,0,2.28-.41,5.91,5.91,0,0,0,3.67-4.13,3.26,3.26,0,0,0,.1-1c0-.11,0-.23,0-.34C105.54,40.83,100.55,38.71,95.14,34.09Z"/><path class="a82a4696-c3bc-4d6f-95cf-b1033f85947e" d="M89.15,78.09c-.73-4.35-5.23-7.49-9.77-12.73-6.68-7.7-9.65-21.83-22-27.82l0,0a5.34,5.34,0,0,0-.6-.29l-.09,0L54.19,36c-1.35-2.65-4.35-8-6.88-8.16-1.8-.13-3.07,1.88-3.88,3.79a54.45,54.45,0,0,0-14.78-2.41,26.14,26.14,0,0,0-3.18-1.48c-3.8-1.48-5.92-.69-6.91,1.13-7.61-.44-9-1.2-9.21-1.32A22,22,0,0,0,18,30.84a15,15,0,0,0,1.59,8.08c-8.42.15-17.67.39-17.67.39a34.41,34.41,0,0,0,13.64,6c8.27,1.43,16.53.15,31.14,13,3.82,3.36,6.74,8.8,11.71,12.89,6.9,5.69,13.38,7.86,15.21,6,2.1-2.14-4-5.87-8.55-12.44-3.67-5.25-6.42-11.35-9.4-14.92A28.72,28.72,0,0,0,37.43,39.28a16.39,16.39,0,0,0-3.3-5.73c2.42.75,4.66,1.58,6.35,2.21,4.2,1.55,11.19,3.71,16.31,7.4,6.06,4.36,9,9.41,11.27,13.81,3.46,6.78,9.4,12.73,12,13.4a3.92,3.92,0,0,0,1.6,0c2.35,2.21,4.33,3.75,5.26,5.35-1.85-.59-4.63,0-7,3.44-1.93,2.81-1.56,4.77-.31,5.91-4.89,1.2-11.61.45-19.66-2.45C48.17,78.39,42.21,73,33.54,74.36c-5.22.83-13.82,2.85-15.1,3.3,1.31,0,11.61-2.1,15.11-2.14,11.9-.15,15.26,6.08,26.77,9.82C68,87.83,76.63,88,82.46,86.22a5.47,5.47,0,0,0,2-.19,6.76,6.76,0,0,0,4.79-4.1A5.58,5.58,0,0,0,89.15,78.09Z"/><path class="a82a4696-c3bc-4d6f-95cf-b1033f85947e" d="M9.35,27.56h0Z"/><path class="b46bf809-b789-422c-bb02-cd3502877cd9" d="M27,9.06a45.68,45.68,0,0,1,70.65,27c-.8-.62-1.64-1.28-2.48-2-6.59-5.63-11-17-21.73-20.86a5.69,5.69,0,0,0-.9-.33l-2.33-.7c-1.48-2.13-4.77-6.45-7-6.3-1.67.11-2.54,2.23-3,4.07a57,57,0,0,0-12.82-.52,22.9,22.9,0,0,0-3.18-1c-3.33-.79-5.08,0-5.78,1.62A54.5,54.5,0,0,1,27,9.06ZM78.35,53.15c-1.65-.41-5.38-1.43-7.69-2.07,3,5.16,5.44,10.5,8.72,14.28,3.65,4.21,7.27,7.07,8.93,10.29A45.79,45.79,0,0,0,98.49,52.1,38.26,38.26,0,0,1,78.35,53.15Zm-18,32.19c-11.51-3.74-14.87-10-26.77-9.82-2.65,0-9.17,1.25-12.77,1.83l-1,.35a45.65,45.65,0,0,0,53.7,9.7A43.31,43.31,0,0,1,60.32,85.34Z"/></g><g id="e6e4a481-7da5-4d85-bb09-acb75685fa36" data-name="Ebene 5"><path class="a82a4696-c3bc-4d6f-95cf-b1033f85947e" d="M157.1,58.48a17,17,0,0,1-5.67-1,10,10,0,0,1-4.63-3.36,10.11,10.11,0,0,1-2.15-5.29l5.43-1.06a5.44,5.44,0,0,0,1.09,3.13,5.66,5.66,0,0,0,2.65,2,9.67,9.67,0,0,0,3.28.59,9.55,9.55,0,0,0,3.45-.65,5.5,5.5,0,0,0,2.69-2.22,6,6,0,0,0,1-3.33,6.63,6.63,0,0,0-2.6-5.25,19.52,19.52,0,0,0-5.46-3.31,28,28,0,0,1-5.46-2.89,13.63,13.63,0,0,1-4.19-4.57,11.75,11.75,0,0,1-1.59-5.88,11.54,11.54,0,0,1,1-4.63A10.58,10.58,0,0,1,148.72,17a10.75,10.75,0,0,1,4.13-2.21,17.24,17.24,0,0,1,10.39.32A10.43,10.43,0,0,1,170,23.78l-5.43,1.06a5.74,5.74,0,0,0-3.74-5.13,9.67,9.67,0,0,0-3.28-.59,9.35,9.35,0,0,0-3.45.65A5.48,5.48,0,0,0,151.43,22a6.07,6.07,0,0,0-1,3.34,6.66,6.66,0,0,0,2.6,5.25,19.48,19.48,0,0,0,5.46,3.3,27.56,27.56,0,0,1,5.46,2.9,13.63,13.63,0,0,1,4.19,4.57,11.75,11.75,0,0,1,1.59,5.87,11.47,11.47,0,0,1-1,4.63A10.41,10.41,0,0,1,166,55.62a10.82,10.82,0,0,1-4.13,2.21A17,17,0,0,1,157.1,58.48Z"/><path class="a82a4696-c3bc-4d6f-95cf-b1033f85947e" d="M180.12,58V14.63H186l7.91,24.08,7.91-24.08h5.9V58h-5.49V49.34q0-8.69.71-17.36.4-5,.59-10.09L196,45h-4.13l-7.55-23.08q.16,5.09.59,10.09.71,8.69.7,17.36V58Z"/><path class="a82a4696-c3bc-4d6f-95cf-b1033f85947e" d="M220.48,58V14.63h22.43v5H226V32.1h13.22v5H226v16h16.94v5Z"/><path class="a82a4696-c3bc-4d6f-95cf-b1033f85947e" d="M254.72,58V14.63H268a14.07,14.07,0,0,1,4.84.86,9.77,9.77,0,0,1,4.05,2.74,11.13,11.13,0,0,1,2.39,4.28,17.29,17.29,0,0,1,0,9.74,11.13,11.13,0,0,1-2.39,4.28,9.52,9.52,0,0,1-4.05,2.71,9,9,0,0,1-1.47.48L281.27,58H275l-9.68-17.88h-5.08V58Zm5.54-22.84H268a6.61,6.61,0,0,0,2.75-.59,5.21,5.21,0,0,0,2.18-1.8,7.19,7.19,0,0,0,1.18-2.6,12,12,0,0,0,.33-2.8,12.42,12.42,0,0,0-.33-2.83,7,7,0,0,0-1.18-2.6,5.29,5.29,0,0,0-2.18-1.77,6.77,6.77,0,0,0-2.75-.59h-7.73Z"/><path class="a82a4696-c3bc-4d6f-95cf-b1033f85947e" d="M301.58,58.48a11.59,11.59,0,0,1-4.46-.88,8.84,8.84,0,0,1-3.63-2.75,11.12,11.12,0,0,1-2.07-4.1,17.9,17.9,0,0,1-.59-4.54V26.44a14.77,14.77,0,0,1,.54-4A11,11,0,0,1,296,16.14a11.52,11.52,0,0,1,3.69-1.54,18.39,18.39,0,0,1,4-.44,17.58,17.58,0,0,1,5.75,1,10.17,10.17,0,0,1,4.7,3.37,10.43,10.43,0,0,1,2.24,5.28L311,25a6,6,0,0,0-1.18-3.22,5.69,5.69,0,0,0-2.72-2,10.16,10.16,0,0,0-3.42-.59,9.21,9.21,0,0,0-2.89.47,6.46,6.46,0,0,0-2.48,1.51,5.74,5.74,0,0,0-1.51,2.44,9.85,9.85,0,0,0-.44,2.9V46.21a9.79,9.79,0,0,0,.44,2.89,5.84,5.84,0,0,0,1.51,2.45,6.32,6.32,0,0,0,2.48,1.5,8.94,8.94,0,0,0,2.89.48,7.8,7.8,0,0,0,2.77-.51,5.71,5.71,0,0,0,2.33-1.56A5.82,5.82,0,0,0,310.16,49a10.28,10.28,0,0,0,.39-2.8h0v-7H303.7v-5h12.39V58H311.2v-6.9a13.46,13.46,0,0,1-1.77,3.66,8.64,8.64,0,0,1-3.49,2.77A10.6,10.6,0,0,1,301.58,58.48Z"/><path class="a82a4696-c3bc-4d6f-95cf-b1033f85947e" d="M330.26,58V14.63h22.43v5H335.75V32.1H349v5H335.75v16h16.94v5Z"/><path class="a82a4696-c3bc-4d6f-95cf-b1033f85947e" d="M150.36,82.8l-4.28-12.5h1.32l3.12,9.38c0,.13.11.32.19.57s.13.43.17.53c0-.14.09-.34.18-.59s.13-.43.16-.51l3-9.38h1.34l-4.27,12.5Z"/><path class="a82a4696-c3bc-4d6f-95cf-b1033f85947e" d="M160.91,83a3.46,3.46,0,0,1-2.87-1.4A5.32,5.32,0,0,1,157,78.23a5.18,5.18,0,0,1,1.09-3.5,3.6,3.6,0,0,1,2.87-1.27,3.37,3.37,0,0,1,2.59,1.12,4.71,4.71,0,0,1,1,3.29,7.78,7.78,0,0,1,0,.88h-6.21a4.2,4.2,0,0,0,.86,2.27,2.27,2.27,0,0,0,1.84.84,3.37,3.37,0,0,0,2.05-.72l.68.84A4.26,4.26,0,0,1,160.91,83Zm-2.67-5.4h5a3.22,3.22,0,0,0-.72-2.34,2.25,2.25,0,0,0-1.62-.69,2.44,2.44,0,0,0-1.87.77A3.34,3.34,0,0,0,158.24,77.62Z"/><path class="a82a4696-c3bc-4d6f-95cf-b1033f85947e" d="M167.81,82.8V73.68h1.25V75a2.37,2.37,0,0,1,2.3-1.5,2.11,2.11,0,0,1,1.28.38l-.19,1.21a2.27,2.27,0,0,0-1.18-.34,2.11,2.11,0,0,0-1.53.71,3.07,3.07,0,0,0-.68,2.22V82.8Z"/><path class="a82a4696-c3bc-4d6f-95cf-b1033f85947e" d="M178,83a4,4,0,0,1-3.15-1.59l.88-.77a3.07,3.07,0,0,0,2.37,1.25,2.23,2.23,0,0,0,1.29-.35,1.13,1.13,0,0,0,.5-1,1.41,1.41,0,0,0-.18-.71,1.78,1.78,0,0,0-.56-.57,5.39,5.39,0,0,0-.69-.4c-.2-.1-.48-.21-.84-.36s-.78-.34-1.05-.48a5,5,0,0,1-.84-.54,2,2,0,0,1-.64-.75,2.48,2.48,0,0,1-.2-1,2,2,0,0,1,.82-1.67,3.35,3.35,0,0,1,2.12-.65,3.7,3.7,0,0,1,3,1.4l-.82.69a3,3,0,0,0-2.18-1,2.24,2.24,0,0,0-1.26.32,1,1,0,0,0-.47.88,1.08,1.08,0,0,0,.12.5,1.65,1.65,0,0,0,.29.38,2.12,2.12,0,0,0,.5.34,5.38,5.38,0,0,0,.53.27l.65.26.84.34a6.33,6.33,0,0,1,.75.42,2.62,2.62,0,0,1,.7.55,2.78,2.78,0,0,1,.43.71,2.55,2.55,0,0,1,.19,1,2.24,2.24,0,0,1-.83,1.82A3.46,3.46,0,0,1,178,83Z"/><path class="a82a4696-c3bc-4d6f-95cf-b1033f85947e" d="M185.68,71.57a.78.78,0,0,1-.59.23.79.79,0,0,1-.82-.82.85.85,0,0,1,.24-.61.81.81,0,0,1,1.17,0,.89.89,0,0,1,.23.61A.81.81,0,0,1,185.68,71.57ZM184.46,82.8V73.68h1.25V82.8Z"/><path class="a82a4696-c3bc-4d6f-95cf-b1033f85947e" d="M193,83a3.54,3.54,0,0,1-2.85-1.26,6.32,6.32,0,0,1,0-7,3.81,3.81,0,0,1,5.68,0,6.27,6.27,0,0,1,0,7A3.52,3.52,0,0,1,193,83Zm0-1.13a2.22,2.22,0,0,0,1.92-1,5.68,5.68,0,0,0,0-5.37,2.2,2.2,0,0,0-1.93-1,2.23,2.23,0,0,0-1.94.94,5.78,5.78,0,0,0,0,5.4A2.22,2.22,0,0,0,193,81.89Z"/><path class="a82a4696-c3bc-4d6f-95cf-b1033f85947e" d="M205.93,82.8V77.23a2.94,2.94,0,0,0-.58-2,2,2,0,0,0-1.55-.63q-2.25,0-2.25,2.61v5.6H200.3V73.68h1.25v1a2.71,2.71,0,0,1,2.36-1.22,2.93,2.93,0,0,1,2.47,1,5.34,5.34,0,0,1,.8,3.27v5Z"/><path class="a82a4696-c3bc-4d6f-95cf-b1033f85947e" d="M219,83a3.13,3.13,0,0,1-2.63-1.26,5.61,5.61,0,0,1-1-3.51,5.54,5.54,0,0,1,1-3.52,3.33,3.33,0,0,1,2.75-1.27,3.23,3.23,0,0,1,1.79.5A3.06,3.06,0,0,1,222,75.37l-1.14.45a1.84,1.84,0,0,0-1.84-1.23c-1.6,0-2.39,1.22-2.39,3.66s.78,3.64,2.35,3.64a2.11,2.11,0,0,0,1.26-.37,2.06,2.06,0,0,0,.76-1l1.12.43A2.81,2.81,0,0,1,221,82.45,3.59,3.59,0,0,1,219,83Z"/><path class="a82a4696-c3bc-4d6f-95cf-b1033f85947e" d="M228.64,83a3.54,3.54,0,0,1-2.85-1.26,6.32,6.32,0,0,1,0-7,3.81,3.81,0,0,1,5.68,0,6.27,6.27,0,0,1,0,7A3.52,3.52,0,0,1,228.64,83Zm0-1.13a2.19,2.19,0,0,0,1.91-1,5.64,5.64,0,0,0,0-5.37,2.45,2.45,0,0,0-3.87,0,5.78,5.78,0,0,0,0,5.4A2.21,2.21,0,0,0,228.64,81.89Z"/><path class="a82a4696-c3bc-4d6f-95cf-b1033f85947e" d="M241.54,82.8V77.23a2.94,2.94,0,0,0-.57-2,2,2,0,0,0-1.55-.63q-2.25,0-2.25,2.61v5.6h-1.25V73.68h1.25v1a2.7,2.7,0,0,1,2.36-1.22,2.93,2.93,0,0,1,2.47,1,5.35,5.35,0,0,1,.79,3.27v5Z"/><path class="a82a4696-c3bc-4d6f-95cf-b1033f85947e" d="M249,83c-1.2,0-1.8-.7-1.8-2.09V74.8h-1.56V73.68h1.56V70.54l1.25-.63v3.77h2.32V74.8h-2.32v5.59a2.35,2.35,0,0,0,.19,1.07.81.81,0,0,0,.79.38,2.53,2.53,0,0,0,1.37-.54l-.14,1.31A3.49,3.49,0,0,1,249,83Z"/><path class="a82a4696-c3bc-4d6f-95cf-b1033f85947e" d="M254.08,82.8V73.68h1.25V75a2.37,2.37,0,0,1,2.3-1.5,2.16,2.16,0,0,1,1.29.38l-.2,1.21a2.27,2.27,0,0,0-1.18-.34,2.11,2.11,0,0,0-1.53.71,3.12,3.12,0,0,0-.68,2.22V82.8Z"/><path class="a82a4696-c3bc-4d6f-95cf-b1033f85947e" d="M265,83a3.54,3.54,0,0,1-2.85-1.26,6.32,6.32,0,0,1,0-7,3.82,3.82,0,0,1,5.69,0,6.32,6.32,0,0,1,0,7A3.52,3.52,0,0,1,265,83Zm0-1.13a2.22,2.22,0,0,0,1.92-1,5.64,5.64,0,0,0,0-5.37,2.46,2.46,0,0,0-3.88,0,5.78,5.78,0,0,0,0,5.4A2.23,2.23,0,0,0,265,81.89Z"/><path class="a82a4696-c3bc-4d6f-95cf-b1033f85947e" d="M272.33,82.8V70.52l1.25-.61V82.8Z"/><path class="a82a4696-c3bc-4d6f-95cf-b1033f85947e" d="M284.2,74.8v8H283v-8h-1.47V73.68H283V72.12a1.8,1.8,0,0,1,1.89-2,3.16,3.16,0,0,1,1.55.43v1.09a2.75,2.75,0,0,0-1.3-.36,1.21,1.21,0,0,0-.5.09.57.57,0,0,0-.28.27,1.11,1.11,0,0,0-.09.32,2.07,2.07,0,0,0,0,.39v1.36h2.19V74.8Z"/><path class="a82a4696-c3bc-4d6f-95cf-b1033f85947e" d="M292.07,83a3.54,3.54,0,0,1-2.85-1.26,6.32,6.32,0,0,1,0-7,3.82,3.82,0,0,1,5.69,0,6.32,6.32,0,0,1,0,7A3.52,3.52,0,0,1,292.07,83Zm0-1.13a2.22,2.22,0,0,0,1.92-1,5.64,5.64,0,0,0,0-5.37,2.45,2.45,0,0,0-3.87,0,5.78,5.78,0,0,0,0,5.4A2.2,2.2,0,0,0,292.07,81.89Z"/><path class="a82a4696-c3bc-4d6f-95cf-b1033f85947e" d="M299.36,82.8V73.68h1.25V75a2.37,2.37,0,0,1,2.3-1.5,2.16,2.16,0,0,1,1.29.38l-.2,1.21a2.27,2.27,0,0,0-1.18-.34,2.11,2.11,0,0,0-1.53.71,3.12,3.12,0,0,0-.68,2.22V82.8Z"/><path class="a82a4696-c3bc-4d6f-95cf-b1033f85947e" d="M315.55,83a4.72,4.72,0,0,1-2.64-.74,3.63,3.63,0,0,1-1.52-1.8l1.18-.43a3.06,3.06,0,0,0,1.18,1.34,3.33,3.33,0,0,0,1.82.5,2.9,2.9,0,0,0,1.94-.6,2.1,2.1,0,0,0,.7-1.7,2.21,2.21,0,0,0-.77-1.74,6.31,6.31,0,0,0-2.05-1.17,12.61,12.61,0,0,1-1.33-.57,7.76,7.76,0,0,1-1.14-.73,3,3,0,0,1-.89-1,3,3,0,0,1-.3-1.34,2.59,2.59,0,0,1,1-2.07,4,4,0,0,1,2.68-.84,4.38,4.38,0,0,1,2.28.55,2.54,2.54,0,0,1,1.2,1.43l-1.16.39a2.12,2.12,0,0,0-.87-.89,2.94,2.94,0,0,0-1.51-.36,2.7,2.7,0,0,0-1.71.49A1.52,1.52,0,0,0,313,73a1.64,1.64,0,0,0,.22.86,2.2,2.2,0,0,0,.68.68,6.62,6.62,0,0,0,.87.5c.28.13.65.28,1.1.46a9.8,9.8,0,0,1,1.29.6,7,7,0,0,1,1.13.79,3.41,3.41,0,0,1,.87,1.16,3.6,3.6,0,0,1,.32,1.52,3.18,3.18,0,0,1-1.09,2.55A4.31,4.31,0,0,1,315.55,83Z"/><path class="a82a4696-c3bc-4d6f-95cf-b1033f85947e" d="M328.85,82.8V77.23a2.94,2.94,0,0,0-.57-2,2,2,0,0,0-1.55-.63q-2.25,0-2.25,2.61v5.6h-1.25V73.68h1.25v1a2.7,2.7,0,0,1,2.36-1.22,3,3,0,0,1,2.47,1,5.35,5.35,0,0,1,.79,3.27v5Z"/><path class="a82a4696-c3bc-4d6f-95cf-b1033f85947e" d="M339.26,82.8v-.89A3.92,3.92,0,0,1,336.58,83a3.15,3.15,0,0,1-2.26-.8,3,3,0,0,1-.84-2.29,2.73,2.73,0,0,1,.95-2.25,3.69,3.69,0,0,1,2.37-.77,5.13,5.13,0,0,1,2.46.64v-.77c0-1.48-.67-2.23-2-2.23a4.87,4.87,0,0,0-2.71,1l-.36-1.07a6,6,0,0,1,3.2-1,3.77,3.77,0,0,1,1,.14,3.24,3.24,0,0,1,1,.46,2.33,2.33,0,0,1,.76,1,4,4,0,0,1,.28,1.58V82.8Zm-2.55-.87a3.27,3.27,0,0,0,2.55-1.41V78.75a4.16,4.16,0,0,0-2.34-.75,2.61,2.61,0,0,0-1.63.49,1.68,1.68,0,0,0-.65,1.44,2,2,0,0,0,.54,1.45A2,2,0,0,0,336.71,81.93Z"/><path class="a82a4696-c3bc-4d6f-95cf-b1033f85947e" d="M347.81,83a3.14,3.14,0,0,1-2.5-1.15V85.8l-1.25.63V73.68h1.25v.82a3.68,3.68,0,0,1,2.5-1,3.32,3.32,0,0,1,2.76,1.3,6.47,6.47,0,0,1,0,7A3.39,3.39,0,0,1,347.81,83Zm-.14-1.13a2.21,2.21,0,0,0,1.93-1,4.61,4.61,0,0,0,.68-2.71,4.49,4.49,0,0,0-.7-2.66,2.22,2.22,0,0,0-1.91-1,2.6,2.6,0,0,0-1.36.37,2.85,2.85,0,0,0-1,1v4.48A3.05,3.05,0,0,0,347.67,81.89Z"/><path class="a82a4696-c3bc-4d6f-95cf-b1033f85947e" d="M356.55,82.71a1,1,0,0,1-.79.34,1,1,0,0,1-.79-.34,1.05,1.05,0,0,1-.34-.78,1.12,1.12,0,0,1,1.92-.79,1.11,1.11,0,0,1,.33.79A1.08,1.08,0,0,1,356.55,82.71Zm-.86-3.35-.54-5.4V70.09h1.29V74l-.56,5.4Z"/></g></svg>