<?xml version="1.0" encoding="UTF-8" standalone="no"?>
<svg
   viewBox="0 0 359 102"
   version="1.1"
   id="svg79"
   sodipodi:docname="icon_debug.svg"
   xml:space="preserve"
   width="359"
   height="102"
   inkscape:version="1.2.2 (b0a8486541, 2022-12-01)"
   xmlns:inkscape="http://www.inkscape.org/namespaces/inkscape"
   xmlns:sodipodi="http://sodipodi.sourceforge.net/DTD/sodipodi-0.dtd"
   xmlns:xlink="http://www.w3.org/1999/xlink"
   xmlns="http://www.w3.org/2000/svg"
   xmlns:svg="http://www.w3.org/2000/svg"
   xmlns:rdf="http://www.w3.org/1999/02/22-rdf-syntax-ns#"
   xmlns:cc="http://creativecommons.org/ns#"
   xmlns:dc="http://purl.org/dc/elements/1.1/"><sodipodi:namedview
     id="namedview81"
     pagecolor="#ffffff"
     bordercolor="#000000"
     borderopacity="0.25"
     inkscape:showpageshadow="2"
     inkscape:pageopacity="0.0"
     inkscape:pagecheckerboard="0"
     inkscape:deskcolor="#d1d1d1"
     showgrid="false"
     inkscape:zoom="4.3036212"
     inkscape:cx="182.40453"
     inkscape:cy="45.078317"
     inkscape:window-width="2560"
     inkscape:window-height="1372"
     inkscape:window-x="0"
     inkscape:window-y="0"
     inkscape:window-maximized="1"
     inkscape:current-layer="svg79" /><defs
     id="defs9"><rect
       x="243.2835"
       y="6.2737864"
       width="79.235599"
       height="38.339806"
       id="rect979" /><style
       id="style2">.a82a4696-c3bc-4d6f-95cf-b1033f85947e{fill:#0f0303;}.b46bf809-b789-422c-bb02-cd3502877cd9{opacity:0.8;fill:url(#bd71f4ea-dc4a-4f69-bb49-3674d6cb035e);}</style><linearGradient
       id="bd71f4ea-dc4a-4f69-bb49-3674d6cb035e"
       x1="77.839996"
       y1="8.0100002"
       x2="32.16"
       y2="87.129997"
       gradientUnits="userSpaceOnUse"><stop
         offset="0"
         stop-color="#c39ec1"
         id="stop4" /><stop
         offset="0.99"
         stop-color="#076aab"
         id="stop6" /></linearGradient><linearGradient
       inkscape:collect="always"
       id="linearGradient8885"><stop
         style="stop-color:#989898;stop-opacity:1;"
         offset="0"
         id="stop8881" /><stop
         style="stop-color:#5a5a5a;stop-opacity:1;"
         offset="1"
         id="stop8883" /></linearGradient><linearGradient
       inkscape:collect="always"
       id="linearGradient8877"><stop
         style="stop-color:#999999;stop-opacity:1;"
         offset="0"
         id="stop8873" /><stop
         style="stop-color:#595959;stop-opacity:1;"
         offset="1"
         id="stop8875" /></linearGradient><linearGradient
       id="linearGradient8235"
       inkscape:swatch="solid"><stop
         style="stop-color:#ffffff;stop-opacity:1;"
         offset="0"
         id="stop8233" /></linearGradient><style
       id="style2-1">.f18aa20b-197f-4ff1-b9fc-b2821f0ef95b{fill:#0f0303;}.bcf19d4a-7bc4-4504-8dfc-4b8784317d9e{opacity:0.8;fill:url(#af08b012-d976-4636-b321-c65e95673e01);}</style><linearGradient
       id="af08b012-d976-4636-b321-c65e95673e01"
       x1="76.610001"
       y1="8.0100002"
       x2="30.93"
       y2="87.129997"
       gradientUnits="userSpaceOnUse"
       gradientTransform="translate(-1.2075357,2.8841959)"><stop
         offset="0"
         stop-color="#c39ec1"
         id="stop4-2" /><stop
         offset="0.99"
         stop-color="#076aab"
         id="stop6-7" /></linearGradient><radialGradient
       inkscape:collect="always"
       xlink:href="#linearGradient8877"
       id="radialGradient8879"
       cx="49.745506"
       cy="68.597557"
       fx="49.745506"
       fy="68.597557"
       r="6.1158066"
       gradientTransform="matrix(0.39041271,1.5825662,-0.82097705,0.20253173,88.014498,-20.44229)"
       gradientUnits="userSpaceOnUse" /><radialGradient
       inkscape:collect="always"
       xlink:href="#linearGradient8885"
       id="radialGradient8887"
       cx="35.450253"
       cy="94.872612"
       fx="35.450253"
       fy="94.872612"
       r="12.482726"
       gradientTransform="matrix(1.1917534,2.6462028,-0.85033432,0.38295957,80.876799,-48.818278)"
       gradientUnits="userSpaceOnUse" /></defs><title
     id="title11">logo-03</title><g
     id="e6e4a481-7da5-4d85-bb09-acb75685fa36"
     data-name="Ebene 5"
     transform="translate(0,0.71495419)"><path
       class="a82a4696-c3bc-4d6f-95cf-b1033f85947e"
       d="m 157.1,58.48 a 17,17 0 0 1 -5.67,-1 10,10 0 0 1 -4.63,-3.36 10.11,10.11 0 0 1 -2.15,-5.29 l 5.43,-1.06 a 5.44,5.44 0 0 0 1.09,3.13 5.66,5.66 0 0 0 2.65,2 9.67,9.67 0 0 0 3.28,0.59 9.55,9.55 0 0 0 3.45,-0.65 5.5,5.5 0 0 0 2.69,-2.22 6,6 0 0 0 1,-3.33 6.63,6.63 0 0 0 -2.6,-5.25 19.52,19.52 0 0 0 -5.46,-3.31 28,28 0 0 1 -5.46,-2.89 13.63,13.63 0 0 1 -4.19,-4.57 11.75,11.75 0 0 1 -1.59,-5.88 11.54,11.54 0 0 1 1,-4.63 10.58,10.58 0 0 1 2.78,-3.76 10.75,10.75 0 0 1 4.13,-2.21 17.24,17.24 0 0 1 10.39,0.32 10.43,10.43 0 0 1 6.76,8.67 l -5.43,1.06 a 5.74,5.74 0 0 0 -3.74,-5.13 9.67,9.67 0 0 0 -3.28,-0.59 9.35,9.35 0 0 0 -3.45,0.65 5.48,5.48 0 0 0 -2.67,2.23 6.07,6.07 0 0 0 -1,3.34 6.66,6.66 0 0 0 2.6,5.25 19.48,19.48 0 0 0 5.46,3.3 27.56,27.56 0 0 1 5.46,2.9 13.63,13.63 0 0 1 4.19,4.57 11.75,11.75 0 0 1 1.59,5.87 11.47,11.47 0 0 1 -1,4.63 10.41,10.41 0 0 1 -2.73,3.76 10.82,10.82 0 0 1 -4.13,2.21 17,17 0 0 1 -4.77,0.65 z"
       id="path22" /><path
       class="a82a4696-c3bc-4d6f-95cf-b1033f85947e"
       d="M 180.12,58 V 14.63 H 186 l 7.91,24.08 7.91,-24.08 h 5.9 V 58 h -5.49 v -8.66 q 0,-8.69 0.71,-17.36 0.4,-5 0.59,-10.09 L 196,45 h -4.13 l -7.55,-23.08 q 0.16,5.09 0.59,10.09 0.71,8.69 0.7,17.36 V 58 Z"
       id="path24" /><path
       class="a82a4696-c3bc-4d6f-95cf-b1033f85947e"
       d="M 220.48,58 V 14.63 h 22.43 v 5 H 226 V 32.1 h 13.22 v 5 H 226 v 16 h 16.94 v 5 z"
       id="path26" /><path
       class="a82a4696-c3bc-4d6f-95cf-b1033f85947e"
       d="M 254.72,58 V 14.63 H 268 a 14.07,14.07 0 0 1 4.84,0.86 9.77,9.77 0 0 1 4.05,2.74 11.13,11.13 0 0 1 2.39,4.28 17.29,17.29 0 0 1 0,9.74 11.13,11.13 0 0 1 -2.39,4.28 9.52,9.52 0 0 1 -4.05,2.71 9,9 0 0 1 -1.47,0.48 L 281.27,58 H 275 l -9.68,-17.88 h -5.08 V 58 Z m 5.54,-22.84 H 268 a 6.61,6.61 0 0 0 2.75,-0.59 5.21,5.21 0 0 0 2.18,-1.8 7.19,7.19 0 0 0 1.18,-2.6 12,12 0 0 0 0.33,-2.8 12.42,12.42 0 0 0 -0.33,-2.83 7,7 0 0 0 -1.18,-2.6 5.29,5.29 0 0 0 -2.18,-1.77 6.77,6.77 0 0 0 -2.75,-0.59 h -7.73 z"
       id="path28" /><path
       class="a82a4696-c3bc-4d6f-95cf-b1033f85947e"
       d="m 301.58,58.48 a 11.59,11.59 0 0 1 -4.46,-0.88 8.84,8.84 0 0 1 -3.63,-2.75 11.12,11.12 0 0 1 -2.07,-4.1 17.9,17.9 0 0 1 -0.59,-4.54 V 26.44 a 14.77,14.77 0 0 1 0.54,-4 11,11 0 0 1 4.63,-6.3 11.52,11.52 0 0 1 3.69,-1.54 18.39,18.39 0 0 1 4,-0.44 17.58,17.58 0 0 1 5.75,1 10.17,10.17 0 0 1 4.7,3.37 10.43,10.43 0 0 1 2.24,5.28 L 311,25 a 6,6 0 0 0 -1.18,-3.22 5.69,5.69 0 0 0 -2.72,-2 10.16,10.16 0 0 0 -3.42,-0.59 9.21,9.21 0 0 0 -2.89,0.47 6.46,6.46 0 0 0 -2.48,1.51 5.74,5.74 0 0 0 -1.51,2.44 9.85,9.85 0 0 0 -0.44,2.9 v 19.7 a 9.79,9.79 0 0 0 0.44,2.89 5.84,5.84 0 0 0 1.51,2.45 6.32,6.32 0 0 0 2.48,1.5 8.94,8.94 0 0 0 2.89,0.48 7.8,7.8 0 0 0 2.77,-0.51 5.71,5.71 0 0 0 2.33,-1.56 5.82,5.82 0 0 0 1.38,-2.46 10.28,10.28 0 0 0 0.39,-2.8 v 0 -7 h -6.85 v -5 h 12.39 V 58 h -4.89 v -6.9 a 13.46,13.46 0 0 1 -1.77,3.66 8.64,8.64 0 0 1 -3.49,2.77 10.6,10.6 0 0 1 -4.36,0.95 z"
       id="path30" /><path
       class="a82a4696-c3bc-4d6f-95cf-b1033f85947e"
       d="M 330.26,58 V 14.63 h 22.43 v 5 H 335.75 V 32.1 H 349 v 5 h -13.25 v 16 h 16.94 v 5 z"
       id="path32" /><path
       class="a82a4696-c3bc-4d6f-95cf-b1033f85947e"
       d="m 150.36,82.8 -4.28,-12.5 h 1.32 l 3.12,9.38 c 0,0.13 0.11,0.32 0.19,0.57 0.08,0.25 0.13,0.43 0.17,0.53 0,-0.14 0.09,-0.34 0.18,-0.59 0.09,-0.25 0.13,-0.43 0.16,-0.51 l 3,-9.38 h 1.34 l -4.27,12.5 z"
       id="path34" /><path
       class="a82a4696-c3bc-4d6f-95cf-b1033f85947e"
       d="m 160.91,83 a 3.46,3.46 0 0 1 -2.87,-1.4 5.32,5.32 0 0 1 -1.04,-3.37 5.18,5.18 0 0 1 1.09,-3.5 3.6,3.6 0 0 1 2.87,-1.27 3.37,3.37 0 0 1 2.59,1.12 4.71,4.71 0 0 1 1,3.29 7.78,7.78 0 0 1 0,0.88 h -6.21 a 4.2,4.2 0 0 0 0.86,2.27 2.27,2.27 0 0 0 1.84,0.84 3.37,3.37 0 0 0 2.05,-0.72 l 0.68,0.84 A 4.26,4.26 0 0 1 160.91,83 Z m -2.67,-5.4 h 5 a 3.22,3.22 0 0 0 -0.72,-2.34 2.25,2.25 0 0 0 -1.62,-0.69 2.44,2.44 0 0 0 -1.87,0.77 3.34,3.34 0 0 0 -0.79,2.28 z"
       id="path36" /><path
       class="a82a4696-c3bc-4d6f-95cf-b1033f85947e"
       d="m 167.81,82.8 v -9.12 h 1.25 V 75 a 2.37,2.37 0 0 1 2.3,-1.5 2.11,2.11 0 0 1 1.28,0.38 l -0.19,1.21 a 2.27,2.27 0 0 0 -1.18,-0.34 2.11,2.11 0 0 0 -1.53,0.71 3.07,3.07 0 0 0 -0.68,2.22 v 5.12 z"
       id="path38" /><path
       class="a82a4696-c3bc-4d6f-95cf-b1033f85947e"
       d="m 178,83 a 4,4 0 0 1 -3.15,-1.59 l 0.88,-0.77 a 3.07,3.07 0 0 0 2.37,1.25 2.23,2.23 0 0 0 1.29,-0.35 1.13,1.13 0 0 0 0.5,-1 1.41,1.41 0 0 0 -0.18,-0.71 1.78,1.78 0 0 0 -0.56,-0.57 5.39,5.39 0 0 0 -0.69,-0.4 c -0.2,-0.1 -0.48,-0.21 -0.84,-0.36 -0.36,-0.15 -0.78,-0.34 -1.05,-0.48 a 5,5 0 0 1 -0.84,-0.54 2,2 0 0 1 -0.64,-0.75 2.48,2.48 0 0 1 -0.2,-1 2,2 0 0 1 0.82,-1.67 3.35,3.35 0 0 1 2.12,-0.65 3.7,3.7 0 0 1 3,1.4 l -0.82,0.69 a 3,3 0 0 0 -2.18,-1 2.24,2.24 0 0 0 -1.26,0.32 1,1 0 0 0 -0.47,0.88 1.08,1.08 0 0 0 0.12,0.5 1.65,1.65 0 0 0 0.29,0.38 2.12,2.12 0 0 0 0.5,0.34 5.38,5.38 0 0 0 0.53,0.27 l 0.65,0.26 0.84,0.34 a 6.33,6.33 0 0 1 0.75,0.42 2.62,2.62 0 0 1 0.7,0.55 2.78,2.78 0 0 1 0.43,0.71 2.55,2.55 0 0 1 0.19,1 2.24,2.24 0 0 1 -0.83,1.82 A 3.46,3.46 0 0 1 178,83 Z"
       id="path40" /><path
       class="a82a4696-c3bc-4d6f-95cf-b1033f85947e"
       d="m 185.68,71.57 a 0.78,0.78 0 0 1 -0.59,0.23 0.79,0.79 0 0 1 -0.82,-0.82 0.85,0.85 0 0 1 0.24,-0.61 0.81,0.81 0 0 1 1.17,0 0.89,0.89 0 0 1 0.23,0.61 0.81,0.81 0 0 1 -0.23,0.59 z m -1.22,11.23 v -9.12 h 1.25 v 9.12 z"
       id="path42" /><path
       class="a82a4696-c3bc-4d6f-95cf-b1033f85947e"
       d="m 193,83 a 3.54,3.54 0 0 1 -2.85,-1.26 6.32,6.32 0 0 1 0,-7 3.81,3.81 0 0 1 5.68,0 6.27,6.27 0 0 1 0,7 A 3.52,3.52 0 0 1 193,83 Z m 0,-1.13 a 2.22,2.22 0 0 0 1.92,-1 5.68,5.68 0 0 0 0,-5.37 2.2,2.2 0 0 0 -1.93,-1 2.23,2.23 0 0 0 -1.94,0.94 5.78,5.78 0 0 0 0,5.4 2.22,2.22 0 0 0 1.95,1.05 z"
       id="path44" /><path
       class="a82a4696-c3bc-4d6f-95cf-b1033f85947e"
       d="m 205.93,82.8 v -5.57 a 2.94,2.94 0 0 0 -0.58,-2 2,2 0 0 0 -1.55,-0.63 q -2.25,0 -2.25,2.61 v 5.6 h -1.25 v -9.13 h 1.25 v 1 a 2.71,2.71 0 0 1 2.36,-1.22 2.93,2.93 0 0 1 2.47,1 5.34,5.34 0 0 1 0.8,3.27 v 5 z"
       id="path46" /><path
       class="a82a4696-c3bc-4d6f-95cf-b1033f85947e"
       d="m 219,83 a 3.13,3.13 0 0 1 -2.63,-1.26 5.61,5.61 0 0 1 -1,-3.51 5.54,5.54 0 0 1 1,-3.52 3.33,3.33 0 0 1 2.75,-1.27 3.23,3.23 0 0 1 1.79,0.5 3.06,3.06 0 0 1 1.09,1.43 l -1.14,0.45 a 1.84,1.84 0 0 0 -1.84,-1.23 c -1.6,0 -2.39,1.22 -2.39,3.66 0,2.44 0.78,3.64 2.35,3.64 a 2.11,2.11 0 0 0 1.26,-0.37 2.06,2.06 0 0 0 0.76,-1 l 1.12,0.43 A 2.81,2.81 0 0 1 221,82.45 3.59,3.59 0 0 1 219,83 Z"
       id="path48" /><path
       class="a82a4696-c3bc-4d6f-95cf-b1033f85947e"
       d="m 228.64,83 a 3.54,3.54 0 0 1 -2.85,-1.26 6.32,6.32 0 0 1 0,-7 3.81,3.81 0 0 1 5.68,0 6.27,6.27 0 0 1 0,7 3.52,3.52 0 0 1 -2.83,1.26 z m 0,-1.13 a 2.19,2.19 0 0 0 1.91,-1 5.64,5.64 0 0 0 0,-5.37 2.45,2.45 0 0 0 -3.87,0 5.78,5.78 0 0 0 0,5.4 2.21,2.21 0 0 0 1.96,0.99 z"
       id="path50" /><path
       class="a82a4696-c3bc-4d6f-95cf-b1033f85947e"
       d="m 241.54,82.8 v -5.57 a 2.94,2.94 0 0 0 -0.57,-2 2,2 0 0 0 -1.55,-0.63 q -2.25,0 -2.25,2.61 v 5.6 h -1.25 v -9.13 h 1.25 v 1 a 2.7,2.7 0 0 1 2.36,-1.22 2.93,2.93 0 0 1 2.47,1 5.35,5.35 0 0 1 0.79,3.27 v 5 z"
       id="path52" /><path
       class="a82a4696-c3bc-4d6f-95cf-b1033f85947e"
       d="m 249,83 c -1.2,0 -1.8,-0.7 -1.8,-2.09 V 74.8 h -1.56 v -1.12 h 1.56 v -3.14 l 1.25,-0.63 v 3.77 h 2.32 v 1.12 h -2.32 v 5.59 a 2.35,2.35 0 0 0 0.19,1.07 0.81,0.81 0 0 0 0.79,0.38 2.53,2.53 0 0 0 1.37,-0.54 l -0.14,1.31 A 3.49,3.49 0 0 1 249,83 Z"
       id="path54" /><path
       class="a82a4696-c3bc-4d6f-95cf-b1033f85947e"
       d="m 254.08,82.8 v -9.12 h 1.25 V 75 a 2.37,2.37 0 0 1 2.3,-1.5 2.16,2.16 0 0 1 1.29,0.38 l -0.2,1.21 a 2.27,2.27 0 0 0 -1.18,-0.34 2.11,2.11 0 0 0 -1.53,0.71 3.12,3.12 0 0 0 -0.68,2.22 v 5.12 z"
       id="path56" /><path
       class="a82a4696-c3bc-4d6f-95cf-b1033f85947e"
       d="m 265,83 a 3.54,3.54 0 0 1 -2.85,-1.26 6.32,6.32 0 0 1 0,-7 3.82,3.82 0 0 1 5.69,0 6.32,6.32 0 0 1 0,7 A 3.52,3.52 0 0 1 265,83 Z m 0,-1.13 a 2.22,2.22 0 0 0 1.92,-1 5.64,5.64 0 0 0 0,-5.37 2.46,2.46 0 0 0 -3.88,0 5.78,5.78 0 0 0 0,5.4 2.23,2.23 0 0 0 1.96,0.99 z"
       id="path58" /><path
       class="a82a4696-c3bc-4d6f-95cf-b1033f85947e"
       d="M 272.33,82.8 V 70.52 l 1.25,-0.61 V 82.8 Z"
       id="path60" /><path
       class="a82a4696-c3bc-4d6f-95cf-b1033f85947e"
       d="m 284.2,74.8 v 8 H 283 v -8 h -1.47 V 73.68 H 283 v -1.56 a 1.8,1.8 0 0 1 1.89,-2 3.16,3.16 0 0 1 1.55,0.43 v 1.09 a 2.75,2.75 0 0 0 -1.3,-0.36 1.21,1.21 0 0 0 -0.5,0.09 0.57,0.57 0 0 0 -0.28,0.27 1.11,1.11 0 0 0 -0.09,0.32 2.07,2.07 0 0 0 0,0.39 v 1.36 h 2.19 v 1.09 z"
       id="path62" /><path
       class="a82a4696-c3bc-4d6f-95cf-b1033f85947e"
       d="m 292.07,83 a 3.54,3.54 0 0 1 -2.85,-1.26 6.32,6.32 0 0 1 0,-7 3.82,3.82 0 0 1 5.69,0 6.32,6.32 0 0 1 0,7 3.52,3.52 0 0 1 -2.84,1.26 z m 0,-1.13 a 2.22,2.22 0 0 0 1.92,-1 5.64,5.64 0 0 0 0,-5.37 2.45,2.45 0 0 0 -3.87,0 5.78,5.78 0 0 0 0,5.4 2.2,2.2 0 0 0 1.95,0.99 z"
       id="path64" /><path
       class="a82a4696-c3bc-4d6f-95cf-b1033f85947e"
       d="m 299.36,82.8 v -9.12 h 1.25 V 75 a 2.37,2.37 0 0 1 2.3,-1.5 2.16,2.16 0 0 1 1.29,0.38 l -0.2,1.21 a 2.27,2.27 0 0 0 -1.18,-0.34 2.11,2.11 0 0 0 -1.53,0.71 3.12,3.12 0 0 0 -0.68,2.22 v 5.12 z"
       id="path66" /><path
       class="a82a4696-c3bc-4d6f-95cf-b1033f85947e"
       d="m 315.55,83 a 4.72,4.72 0 0 1 -2.64,-0.74 3.63,3.63 0 0 1 -1.52,-1.8 l 1.18,-0.43 a 3.06,3.06 0 0 0 1.18,1.34 3.33,3.33 0 0 0 1.82,0.5 2.9,2.9 0 0 0 1.94,-0.6 2.1,2.1 0 0 0 0.7,-1.7 2.21,2.21 0 0 0 -0.77,-1.74 6.31,6.31 0 0 0 -2.05,-1.17 12.61,12.61 0 0 1 -1.33,-0.57 7.76,7.76 0 0 1 -1.14,-0.73 3,3 0 0 1 -0.89,-1 3,3 0 0 1 -0.3,-1.34 2.59,2.59 0 0 1 1,-2.07 4,4 0 0 1 2.68,-0.84 4.38,4.38 0 0 1 2.28,0.55 2.54,2.54 0 0 1 1.2,1.43 l -1.16,0.39 a 2.12,2.12 0 0 0 -0.87,-0.89 2.94,2.94 0 0 0 -1.51,-0.36 2.7,2.7 0 0 0 -1.71,0.49 1.52,1.52 0 0 0 -0.64,1.28 1.64,1.64 0 0 0 0.22,0.86 2.2,2.2 0 0 0 0.68,0.68 6.62,6.62 0 0 0 0.87,0.5 c 0.28,0.13 0.65,0.28 1.1,0.46 a 9.8,9.8 0 0 1 1.29,0.6 7,7 0 0 1 1.13,0.79 3.41,3.41 0 0 1 0.87,1.16 3.6,3.6 0 0 1 0.32,1.52 3.18,3.18 0 0 1 -1.09,2.55 4.31,4.31 0 0 1 -2.84,0.88 z"
       id="path68" /><path
       class="a82a4696-c3bc-4d6f-95cf-b1033f85947e"
       d="m 328.85,82.8 v -5.57 a 2.94,2.94 0 0 0 -0.57,-2 2,2 0 0 0 -1.55,-0.63 q -2.25,0 -2.25,2.61 v 5.6 h -1.25 v -9.13 h 1.25 v 1 a 2.7,2.7 0 0 1 2.36,-1.22 3,3 0 0 1 2.47,1 5.35,5.35 0 0 1 0.79,3.27 v 5 z"
       id="path70" /><path
       class="a82a4696-c3bc-4d6f-95cf-b1033f85947e"
       d="m 339.26,82.8 v -0.89 a 3.92,3.92 0 0 1 -2.68,1.09 3.15,3.15 0 0 1 -2.26,-0.8 3,3 0 0 1 -0.84,-2.29 2.73,2.73 0 0 1 0.95,-2.25 3.69,3.69 0 0 1 2.37,-0.77 5.13,5.13 0 0 1 2.46,0.64 v -0.77 c 0,-1.48 -0.67,-2.23 -2,-2.23 a 4.87,4.87 0 0 0 -2.71,1 l -0.36,-1.07 a 6,6 0 0 1 3.2,-1 3.77,3.77 0 0 1 1,0.14 3.24,3.24 0 0 1 1,0.46 2.33,2.33 0 0 1 0.76,1 4,4 0 0 1 0.28,1.58 v 6.16 z m -2.55,-0.87 a 3.27,3.27 0 0 0 2.55,-1.41 v -1.77 a 4.16,4.16 0 0 0 -2.34,-0.75 2.61,2.61 0 0 0 -1.63,0.49 1.68,1.68 0 0 0 -0.65,1.44 2,2 0 0 0 0.54,1.45 2,2 0 0 0 1.53,0.55 z"
       id="path72" /><path
       class="a82a4696-c3bc-4d6f-95cf-b1033f85947e"
       d="m 347.81,83 a 3.14,3.14 0 0 1 -2.5,-1.15 v 3.95 l -1.25,0.63 V 73.68 h 1.25 v 0.82 a 3.68,3.68 0 0 1 2.5,-1 3.32,3.32 0 0 1 2.76,1.3 6.47,6.47 0 0 1 0,7 3.39,3.39 0 0 1 -2.76,1.2 z m -0.14,-1.13 a 2.21,2.21 0 0 0 1.93,-1 4.61,4.61 0 0 0 0.68,-2.71 4.49,4.49 0 0 0 -0.7,-2.66 2.22,2.22 0 0 0 -1.91,-1 2.6,2.6 0 0 0 -1.36,0.37 2.85,2.85 0 0 0 -1,1 v 4.48 a 3.05,3.05 0 0 0 2.36,1.54 z"
       id="path74" /><path
       class="a82a4696-c3bc-4d6f-95cf-b1033f85947e"
       d="m 356.55,82.71 a 1,1 0 0 1 -0.79,0.34 1,1 0 0 1 -0.79,-0.34 1.05,1.05 0 0 1 -0.34,-0.78 1.12,1.12 0 0 1 1.92,-0.79 1.11,1.11 0 0 1 0.33,0.79 1.08,1.08 0 0 1 -0.33,0.78 z m -0.86,-3.35 -0.54,-5.4 v -3.87 h 1.29 V 74 l -0.56,5.4 z"
       id="path76" /></g><metadata
     id="metadata826"><rdf:RDF><cc:Work
         rdf:about=""><dc:title>logo-03</dc:title></cc:Work></rdf:RDF></metadata><g
     id="fb3019b2-688f-4dd8-b720-eea929932b51"
     data-name="Ebene 2"
     style="display:inline"
     transform="matrix(0.99298157,0,0,0.99298157,2.7708769,1.636806)"><path
       class="bcf19d4a-7bc4-4504-8dfc-4b8784317d9e"
       d="m 24.532464,11.944196 a 45.68,45.68 0 0 1 70.65,27 c -0.81,-0.62 -1.64,-1.28 -2.48,-2 -6.59,-5.63 -11,-17 -21.73,-20.86 a 5.42,5.42 0 0 0 -0.91,-0.33 c -0.79,-0.25 -1.56,-0.48 -2.32,-0.7 -1.48,-2.13 -4.77,-6.4500001 -7,-6.3000001 -1.67,0.13 -2.54,2.2600001 -2.95,4.1300001 a 57.1,57.1 0 0 0 -12.83,-0.52 22.33,22.33 0 0 0 -3.17,-1 c -3.33,-0.79 -5.08,0 -5.78,1.62 a 54.43,54.43 0 0 1 -11.48,-1.04 z m 51.37,44.09 c -1.64,-0.41 -5.37,-1.43 -7.68,-2.07 3,5.16 5.44,10.5 8.72,14.28 3.65,4.21 7.26,7.07 8.93,10.29 a 45.79,45.79 0 0 0 10.18,-23.55 38.29,38.29 0 0 1 -20.15,1.05 z m -18,32.19 c -11.5,-3.74 -14.86,-10 -26.76,-9.82 -2.65,0 -9.17,1.25 -12.77,1.83 l -1,0.35 a 45.66,45.66 0 0 0 53.7,9.7 43.42,43.42 0 0 1 -13.2,-2.06 z"
       id="path19-9"
       style="display:inline;fill:url(#af08b012-d976-4636-b321-c65e95673e01)"
       inkscape:label="background" /><path
       style="display:inline;fill:#ffffff;fill-opacity:1;stroke-width:1.03685"
       d="m 6.9593903,30.443154 2.222291,1.016721 c 17.6479667,2.125596 32.4446517,4.830257 39.4138667,8.449483 4.600832,2.389287 15.91341,12.441305 20.485102,13.635035 11.331434,3.43323 20.866009,2.733318 25.1434,1.456724 7.39735,-2.207752 8.22501,-8.547333 7.14281,-9.813945 C 97.404921,40.550089 90.711413,37.615393 86.342526,32.593759 78.860128,23.2 74.621712,19.214643 63.706055,16.097544 48.73961,10.776581 35.479045,16.103578 22.56584,11.830007 21.353679,11.428385 20.009948,10.755831 20.009948,10.755831 15.822561,20.403688 15.859044,20.366462 6.9593903,30.443154 Z"
       id="path351"
       sodipodi:nodetypes="ccscssccccc"
       inkscape:label="badger_back_filling" /><path
       class="f18aa20b-197f-4ff1-b9fc-b2821f0ef95b"
       d="m 92.702464,36.974196 c -6.59,-5.63 -11,-17 -21.73,-20.86 a 5.42,5.42 0 0 0 -0.91,-0.33 c -0.79,-0.25 -1.56,-0.48 -2.32,-0.7 -1.48,-2.13 -4.77,-6.4500001 -7,-6.3000001 -1.67,0.1 -2.54,2.2300001 -2.95,4.1000001 a 57.1,57.1 0 0 0 -12.83,-0.52 22.33,22.33 0 0 0 -3.17,-1 c -3.33,-0.79 -5.08,0 -5.78,1.62 -9.83,0.13 -16,-2.23 -16,-2.23 a 31.1,31.1 0 0 0 15.58,4.13 13,13 0 0 0 2.35,6.88 c -7.51,1.15 -15.89,2.5 -15.89,2.5 a 34.92,34.92 0 0 0 13.18,3.56 c 7.36,0.24 14.37,-1.87 28.63,7.53 3.72,2.46 6.92,6.83 11.73,9.79 6.68,4.1 12.58,5.2 13.94,3.34 1.56,-2.12 -4.15,-4.62 -8.94,-9.77 -3.82,-4.12 -7,-9.09 -10,-11.82 a 25.19,25.19 0 0 0 -17.08,-7 14.36,14.36 0 0 0 -3.56,-4.58 c 2.19,0.36 4.24,0.81 5.78,1.15 3.84,0.84 10.17,1.87 15.07,4.45 a 31.44,31.44 0 0 1 11.5,10.66 c 3.82,5.47 9.7,9.92 12,10.19 a 3.74,3.74 0 0 0 1.66,-0.29 c 2,1.37 3.7,2.37 4.599996,3.52 -1.689996,-0.45 -4.229996,0.25 -5.999996,3.78 -1.41,2.81 -0.71,4.5 0.65,5.29 -4.06,1.6 -9.9,1.8 -17.12,0.37 -1.48,-0.3 -11.33,-2.73 -12.64,-3.07 l 0.83,2.06 c 0,0 7.17,2 9.63,2.61 a 38,38 0 0 0 21.18,-1.43 5,5 0 0 0 2.28,-0.41 5.89,5.89 0 0 0 3.659996,-4.13 3,3 0 0 0 0.11,-1 c 0,-0.11 0,-0.23 0,-0.34 -0.04,-5.01 -5.029996,-7.13 -10.439996,-11.75 z"
       id="path13-3"
       style="display:inline"
       inkscape:label="badger_back" /><path
       style="display:inline;fill:#ffffff;fill-opacity:1;stroke-width:1.03685"
       d="m 6.9553401,30.443153 c 0,0 1.054583,0.584865 1.6241315,0.672334 17.7640074,2.728129 33.7447894,3.072692 49.5519224,14.694224 13.992642,19.527529 15.767433,20.908286 26.981778,32.657294 1.130705,1.184614 -2.034849,8.93614 -7.476982,10.259706 C 70.066489,90.567717 61.707726,88.098497 54.514648,85.470035 48.113561,83.130978 42.939336,78.735689 36.180916,77.85884 30.193124,77.081974 23.678461,79.271251 17.745081,80.390259 17.18703,80.495505 16.156881,80.756806 16.084498,80.770978 11.28299,60.079711 11.002039,59.458719 -0.53348545,42.176592 4.2050457,38.909387 6.2458473,34.165684 6.9553401,30.443153 Z"
       id="path1355"
       inkscape:label="badger_front_filling"
       sodipodi:nodetypes="cscsssssccc" /><path
       class="f18aa20b-197f-4ff1-b9fc-b2821f0ef95b"
       d="m 86.712464,80.974196 c -0.74,-4.35 -5.23,-7.49 -9.77,-12.73 -6.68,-7.7 -9.65,-21.83 -22,-27.82 v 0 c -0.196115,-0.111171 -0.399975,-0.208088 -0.61,-0.29 h -0.08 l -2.46,-1.25 c -1.35,-2.65 -4.35,-8 -6.88,-8.16 -1.8,-0.13 -3.08,1.88 -3.88,3.79 -4.792157,-1.480215 -9.765851,-2.291216 -14.78,-2.41 -1.028167,-0.565842 -2.094012,-1.060341 -3.19,-1.48 -3.79,-1.48 -5.91,-0.69 -6.9,1.13 -7.6099997,-0.44 -8.9999997,-1.2 -9.2099997,-1.32 2.5991006,1.688613 5.5268977,2.806561 8.5899997,3.28 -0.22523,2.789534 0.328686,5.586811 1.6,8.08 -8.4199997,0.15 -17.67999965,0.39 -17.67999965,0.39 4.05678665,2.973609 8.71616025,5.021686 13.64999965,6 8.27,1.43 16.53,0.15 31.14,13 3.82,3.36 6.74,8.8 11.71,12.89 6.9,5.69 13.38,7.86 15.21,6 2.09,-2.14 -4,-5.87 -8.55,-12.44 -3.68,-5.25 -6.42,-11.35 -9.4,-14.92 -4.521331,-5.698425 -11.036553,-9.46889 -18.23,-10.55 -0.699427,-2.116459 -1.826029,-4.066741 -3.31,-5.73 2.43,0.75 4.67,1.58 6.36,2.21 4.2,1.55 11.19,3.71 16.3,7.4 6.07,4.36 9,9.41 11.28,13.81 3.46,6.78 9.39,12.73 12,13.4 0.527661,0.110001 1.072339,0.110001 1.6,0 2.35,2.21 4.32,3.75 5.26,5.35 -1.86,-0.59 -4.63,0 -7,3.44 -1.93,2.81 -1.56,4.77 -0.31,5.91 -4.89,1.2 -11.62,0.45 -19.66,-2.45 -11.79,-4.23 -17.72,-9.62 -26.41,-8.26 -5.23,0.83 -13.738996,3.076811 -15.018996,3.526811 1.31,0 11.528996,-2.326811 15.028996,-2.366811 11.9,-0.15 15.26,6.08 26.76,9.82 7.67,2.49 16.32,2.65 22.15,0.88 0.67268,0.06068 1.350781,-0.0037 2,-0.19 2.167703,-0.498671 3.951368,-2.0318 4.77,-4.1 0.423417,-1.249938 0.395108,-2.608781 -0.08,-3.84 z"
       id="path15-6"
       style="display:inline"
       sodipodi:nodetypes="ccssccccccccccccccccccccccccccccccccccccc"
       inkscape:label="badger_front" /><g
       id="g8273"
       inkscape:label="shovle"><path
         id="path8261"
         style="display:inline;fill:#000000;fill-opacity:1;stroke:#ffffff;stroke-width:0.923848;stroke-linecap:round;stroke-linejoin:round;stroke-dasharray:none;stroke-dashoffset:0;stroke-opacity:1;paint-order:markers stroke fill"
         d="m 9.9051943,43.509312 c -0.1001538,0.003 -0.2003706,0.02353 -0.2995289,0.06496 -0.2410957,0.100737 -8.2806521,8.13848 -8.381396,8.379592 -0.32919973,0.787887 0.6662317,1.70857 1.4254688,1.319009 0.2150888,-0.110362 0.2140346,-0.110145 0.9130219,0.571992 1.9098131,1.863776 4.2732148,2.386318 6.4182186,1.420056 0.2105353,-0.09484 0.2101803,-0.09441 0.7163433,0.404184 0.943141,0.941491 0.842858,0.829567 2.190531,-0.516056 1.347671,-1.345623 1.281953,-1.238488 0.460119,-2.082267 -0.520018,-0.533904 -0.52221,-0.529957 -0.402379,-0.819194 0.925266,-2.233317 0.369092,-4.534745 -1.560798,-6.450698 -0.573726,-0.569581 -0.574282,-0.570191 -0.461924,-0.792127 0.341335,-0.674225 -0.3166,-1.520382 -1.0176767,-1.499449 z M 9.4198132,46.59482 c 0.4355425,0.387296 0.3477256,0.323365 0.6766468,0.676647 2.165622,2.326005 1.135738,4.496585 0.436662,5.234538 -0.933108,0.985 -3.1200659,2.083123 -5.4456516,0.01443 -0.3245926,-0.288736 -0.4097632,-0.352397 -0.7885188,-0.806562 0.6864563,-0.680522 1.2286946,-1.234883 2.5261473,-2.533365 1.2974537,-1.298482 1.892869,-1.94772 2.5947143,-2.585693 z"
         transform="matrix(1.1223186,0,0,1.1223186,-0.76129828,-11.841003)"
         inkscape:label="handle" /><path
         style="display:inline;fill:#000000;fill-opacity:1;stroke:#ffffff;stroke-width:0.923848;stroke-linecap:round;stroke-linejoin:round;stroke-dasharray:none;stroke-dashoffset:0;stroke-opacity:1;paint-order:markers stroke fill"
         d="M 23.750987,67.905402 C 17.533708,61.675992 12.38346,56.539776 12.370118,56.525284 c -0.01334,-0.01449 1.166249,-1.186851 1.833709,-1.856608 10.59027,10.559011 5.76396,5.905835 11.639547,11.694473 4.249123,4.186242 1.453917,1.274204 11.010294,11.036242 -1.697646,1.718072 -0.05346,0.06037 -1.789587,1.824205 -3.551912,-3.535249 -0.118688,-0.101954 -11.313094,-11.318194 z"
         transform="matrix(1.1223186,0,0,1.1223186,-0.76129828,-11.841003)"
         id="path8259"
         inkscape:label="shaft" /><path
         style="display:inline;fill:#000000;fill-opacity:1;stroke:#ffffff;stroke-width:0.923848;stroke-linecap:round;stroke-linejoin:round;stroke-dasharray:none;stroke-dashoffset:0;stroke-opacity:1;paint-order:markers stroke fill"
         d="M 43.525298,86.945866 C 39.39231,84.18315 38.74001,83.633648 36.185847,81.142852 c -1.125163,-1.097248 -1.143988,-0.93326 0.268869,-2.342341 1.418983,-1.415191 1.240009,-1.411519 2.542358,-0.05207 2.394606,2.49958 3.140406,3.450671 5.651994,7.207791 0.668838,1.077486 1.923976,2.501534 2.572496,3.561994 -0.957311,-0.64502 -2.84297,-2.001828 -3.696266,-2.572348 z"
         transform="matrix(1.1223186,0,0,1.1223186,-0.76129828,-11.841003)"
         id="path8257"
         inkscape:label="connector"
         sodipodi:nodetypes="ssssccss" /><path
         style="display:inline;fill:#000000;fill-opacity:1;stroke:#ffffff;stroke-width:0.923848;stroke-linecap:round;stroke-linejoin:round;stroke-dasharray:none;stroke-dashoffset:0;stroke-opacity:1;paint-order:markers stroke fill"
         d="m 41.855726,98.398888 c -2.693682,-1.67671 -5.052614,-4.56121 -9.208983,-8.73529 1.758208,-3.250578 2.533044,-4.931388 3.795974,-7.23101 0.02273,-0.0246 0.276124,0.174424 0.584865,0.459298 1.41154,1.302419 3.671154,2.846237 5.601459,4.216454 1.934649,1.327378 4.108627,2.804488 5.940499,3.813508 -0.79335,-1.6167 -2.063869,-3.546126 -3.613809,-5.818679 -1.957065,-2.869488 -2.8403,-4.014162 -4.438533,-5.752312 -0.378312,-0.41143 -0.465304,-0.531472 -0.410831,-0.566914 2.721791,-1.341774 4.760075,-2.616287 7.245744,-3.755835 0.09906,0 7.170606,7.126495 7.622118,7.681342 3.313586,4.071958 3.882337,9.054488 1.437592,14.853408 -0.216151,0.51271 -0.127484,0.30913 -0.358907,0.83054 -0.482301,0.2274 -0.317492,0.16114 -0.901938,0.3934 -5.213121,2.028002 -9.160075,2.099122 -13.29525,-0.38791 z"
         transform="matrix(1.1223186,0,0,1.1223186,-0.76129828,-11.841003)"
         id="path7276"
         inkscape:label="shovle" /><path
         style="display:inline;fill:url(#radialGradient8887);fill-opacity:1;fill-rule:nonzero;stroke:none;stroke-width:0.462436;stroke-linecap:round;stroke-linejoin:round;stroke-dasharray:none;stroke-dashoffset:0;stroke-opacity:1;paint-order:markers stroke fill"
         d="m 36.934944,88.555468 c 3.956559,4.489723 5.750024,6.170015 8.926647,8.424422 2.652445,1.882405 4.637625,2.544169 8.035603,2.608339 2.373437,0.0448 4.401345,-0.48208 7.484776,-1.506683 -7.402592,0.953878 -10.520187,0.367321 -14.14331,-1.879294 -3.799033,-2.355693 -5.929929,-3.746201 -10.303716,-7.646784 z"
         id="path8329"
         sodipodi:nodetypes="csscsc"
         inkscape:label="high_bottom" /><path
         style="display:inline;fill:url(#radialGradient8879);fill-opacity:1;fill-rule:nonzero;stroke:none;stroke-width:0.462436;stroke-linecap:round;stroke-linejoin:round;stroke-dasharray:none;stroke-dashoffset:0;stroke-opacity:1;paint-order:markers stroke fill"
         d="m 46.104604,76.615469 c 0,0 5.246839,-2.747185 6.123907,-3.159158 0.713829,0.516909 6.561329,6.480325 6.561329,6.480325 0,0 -4.238865,-3.344628 -6.836743,-5.022252 -2.121032,0.479922 -5.848493,1.701085 -5.848493,1.701085 z"
         id="path8871"
         sodipodi:nodetypes="ccccc"
         inkscape:label="high_top" /></g></g></svg>
