<?xml version="1.0" encoding="UTF-8" standalone="no"?>
<svg
   viewBox="0 0 100 100"
   version="1.1"
   id="svg22"
   sodipodi:docname="logo_debug.svg"
   inkscape:export-filename="logo.png"
   inkscape:export-xdpi="457.14285"
   inkscape:export-ydpi="457.14285"
   width="100"
   height="100"
   inkscape:version="1.2.2 (b0a8486541, 2022-12-01)"
   xml:space="preserve"
   xmlns:inkscape="http://www.inkscape.org/namespaces/inkscape"
   xmlns:sodipodi="http://sodipodi.sourceforge.net/DTD/sodipodi-0.dtd"
   xmlns="http://www.w3.org/2000/svg"
   xmlns:svg="http://www.w3.org/2000/svg"
   xmlns:rdf="http://www.w3.org/1999/02/22-rdf-syntax-ns#"
   xmlns:cc="http://creativecommons.org/ns#"
   xmlns:dc="http://purl.org/dc/elements/1.1/"><sodipodi:namedview
     id="namedview24"
     pagecolor="#ffffff"
     bordercolor="#000000"
     borderopacity="0.21176471"
     inkscape:showpageshadow="2"
     inkscape:pageopacity="0.20392157"
     inkscape:pagecheckerboard="0"
     inkscape:deskcolor="#808080"
     showgrid="false"
     showguides="true"
     inkscape:zoom="5.6568543"
     inkscape:cx="38.183766"
     inkscape:cy="26.516504"
     inkscape:window-width="2560"
     inkscape:window-height="1372"
     inkscape:window-x="0"
     inkscape:window-y="0"
     inkscape:window-maximized="1"
     inkscape:current-layer="g8273" /><defs
     id="defs9"><linearGradient
       id="linearGradient8235"
       inkscape:swatch="solid"><stop
         style="stop-color:#ffffff;stop-opacity:1;"
         offset="0"
         id="stop8233" /></linearGradient><style
       id="style2">.f18aa20b-197f-4ff1-b9fc-b2821f0ef95b{fill:#0f0303;}.bcf19d4a-7bc4-4504-8dfc-4b8784317d9e{opacity:0.8;fill:url(#af08b012-d976-4636-b321-c65e95673e01);}</style><linearGradient
       id="af08b012-d976-4636-b321-c65e95673e01"
       x1="76.610001"
       y1="8.0100002"
       x2="30.93"
       y2="87.129997"
       gradientUnits="userSpaceOnUse"
       gradientTransform="translate(-1.2075357,2.8841959)"><stop
         offset="0"
         stop-color="#c39ec1"
         id="stop4" /><stop
         offset="0.99"
         stop-color="#076aab"
         id="stop6" /></linearGradient></defs><title
     id="title11">logo-04</title><g
     id="fb3019b2-688f-4dd8-b720-eea929932b51"
     data-name="Ebene 2"
     style="display:inline"
     transform="matrix(0.96445781,0,0,0.96445781,0.51843046,2.3732377)"><path
       class="bcf19d4a-7bc4-4504-8dfc-4b8784317d9e"
       d="m 24.532464,11.944196 a 45.68,45.68 0 0 1 70.65,27 c -0.81,-0.62 -1.64,-1.28 -2.48,-2 -6.59,-5.63 -11,-17 -21.73,-20.86 a 5.42,5.42 0 0 0 -0.91,-0.33 c -0.79,-0.25 -1.56,-0.48 -2.32,-0.7 -1.48,-2.13 -4.77,-6.4500001 -7,-6.3000001 -1.67,0.13 -2.54,2.2600001 -2.95,4.1300001 a 57.1,57.1 0 0 0 -12.83,-0.52 22.33,22.33 0 0 0 -3.17,-1 c -3.33,-0.79 -5.08,0 -5.78,1.62 a 54.43,54.43 0 0 1 -11.48,-1.04 z m 51.37,44.09 c -1.64,-0.41 -5.37,-1.43 -7.68,-2.07 3,5.16 5.44,10.5 8.72,14.28 3.65,4.21 7.26,7.07 8.93,10.29 a 45.79,45.79 0 0 0 10.18,-23.55 38.29,38.29 0 0 1 -20.15,1.05 z m -18,32.19 c -11.5,-3.74 -14.86,-10 -26.76,-9.82 -2.65,0 -9.17,1.25 -12.77,1.83 l -1,0.35 a 45.66,45.66 0 0 0 53.7,9.7 43.42,43.42 0 0 1 -13.2,-2.06 z"
       id="path19"
       style="display:inline;fill:url(#af08b012-d976-4636-b321-c65e95673e01)"
       inkscape:label="background" /><path
       style="display:inline;fill:#ffffff;fill-opacity:1;stroke-width:1.03685"
       d="m 6.9593903,30.443154 2.222291,1.016721 c 17.6479667,2.125596 32.4446517,4.830257 39.4138667,8.449483 4.600832,2.389287 15.91341,12.441305 20.485102,13.635035 11.331434,3.43323 20.866009,2.733318 25.1434,1.456724 7.39735,-2.207752 8.22501,-8.547333 7.14281,-9.813945 C 97.404921,40.550089 90.711413,37.615393 86.342526,32.593759 78.860128,23.2 74.621712,19.214643 63.706055,16.097544 48.73961,10.776581 35.479045,16.103578 22.56584,11.830007 21.353679,11.428385 20.009948,10.755831 20.009948,10.755831 15.822561,20.403688 15.859044,20.366462 6.9593903,30.443154 Z"
       id="path351"
       sodipodi:nodetypes="ccscssccccc"
       inkscape:label="badger_back_filling" /><path
       class="f18aa20b-197f-4ff1-b9fc-b2821f0ef95b"
       d="m 92.702464,36.974196 c -6.59,-5.63 -11,-17 -21.73,-20.86 a 5.42,5.42 0 0 0 -0.91,-0.33 c -0.79,-0.25 -1.56,-0.48 -2.32,-0.7 -1.48,-2.13 -4.77,-6.4500001 -7,-6.3000001 -1.67,0.1 -2.54,2.2300001 -2.95,4.1000001 a 57.1,57.1 0 0 0 -12.83,-0.52 22.33,22.33 0 0 0 -3.17,-1 c -3.33,-0.79 -5.08,0 -5.78,1.62 -9.83,0.13 -16,-2.23 -16,-2.23 a 31.1,31.1 0 0 0 15.58,4.13 13,13 0 0 0 2.35,6.88 c -7.51,1.15 -15.89,2.5 -15.89,2.5 a 34.92,34.92 0 0 0 13.18,3.56 c 7.36,0.24 14.37,-1.87 28.63,7.53 3.72,2.46 6.92,6.83 11.73,9.79 6.68,4.1 12.58,5.2 13.94,3.34 1.56,-2.12 -4.15,-4.62 -8.94,-9.77 -3.82,-4.12 -7,-9.09 -10,-11.82 a 25.19,25.19 0 0 0 -17.08,-7 14.36,14.36 0 0 0 -3.56,-4.58 c 2.19,0.36 4.24,0.81 5.78,1.15 3.84,0.84 10.17,1.87 15.07,4.45 a 31.44,31.44 0 0 1 11.5,10.66 c 3.82,5.47 9.7,9.92 12,10.19 a 3.74,3.74 0 0 0 1.66,-0.29 c 2,1.37 3.7,2.37 4.599996,3.52 -1.689996,-0.45 -4.229996,0.25 -5.999996,3.78 -1.41,2.81 -0.71,4.5 0.65,5.29 -4.06,1.6 -9.9,1.8 -17.12,0.37 -1.48,-0.3 -11.33,-2.73 -12.64,-3.07 l 0.83,2.06 c 0,0 7.17,2 9.63,2.61 a 38,38 0 0 0 21.18,-1.43 5,5 0 0 0 2.28,-0.41 5.89,5.89 0 0 0 3.659996,-4.13 3,3 0 0 0 0.11,-1 c 0,-0.11 0,-0.23 0,-0.34 -0.04,-5.01 -5.029996,-7.13 -10.439996,-11.75 z"
       id="path13"
       style="display:inline"
       inkscape:label="badger_back" /><path
       style="display:inline;fill:#ffffff;fill-opacity:1;stroke-width:1.03685"
       d="m 6.9553401,30.443153 c 0,0 1.054583,0.584865 1.6241315,0.672334 17.7640074,2.728129 33.7447894,3.072692 49.5519224,14.694224 13.992642,19.527529 15.767433,20.908286 26.981778,32.657294 1.130705,1.184614 -2.034849,8.93614 -7.476982,10.259706 C 70.066489,90.567717 61.707726,88.098497 54.514648,85.470035 48.113561,83.130978 42.939336,78.735689 36.180916,77.85884 30.193124,77.081974 23.678461,79.271251 17.745081,80.390259 17.18703,80.495505 16.156881,80.756806 16.084498,80.770978 11.28299,60.079711 11.002039,59.458719 -0.53348545,42.176592 4.2050457,38.909387 6.2458473,34.165684 6.9553401,30.443153 Z"
       id="path1355"
       inkscape:label="badger_front_filling"
       sodipodi:nodetypes="cscsssssccc" /><path
       class="f18aa20b-197f-4ff1-b9fc-b2821f0ef95b"
       d="m 86.712464,80.974196 c -0.74,-4.35 -5.23,-7.49 -9.77,-12.73 -6.68,-7.7 -9.65,-21.83 -22,-27.82 v 0 c -0.196115,-0.111171 -0.399975,-0.208088 -0.61,-0.29 h -0.08 l -2.46,-1.25 c -1.35,-2.65 -4.35,-8 -6.88,-8.16 -1.8,-0.13 -3.08,1.88 -3.88,3.79 -4.792157,-1.480215 -9.765851,-2.291216 -14.78,-2.41 -1.028167,-0.565842 -2.094012,-1.060341 -3.19,-1.48 -3.79,-1.48 -5.91,-0.69 -6.9,1.13 -7.6099997,-0.44 -8.9999997,-1.2 -9.2099997,-1.32 2.5991006,1.688613 5.5268977,2.806561 8.5899997,3.28 -0.22523,2.789534 0.328686,5.586811 1.6,8.08 -8.4199997,0.15 -17.67999965,0.39 -17.67999965,0.39 4.05678665,2.973609 8.71616025,5.021686 13.64999965,6 8.27,1.43 16.53,0.15 31.14,13 3.82,3.36 6.74,8.8 11.71,12.89 6.9,5.69 13.38,7.86 15.21,6 2.09,-2.14 -4,-5.87 -8.55,-12.44 -3.68,-5.25 -6.42,-11.35 -9.4,-14.92 -4.521331,-5.698425 -11.036553,-9.46889 -18.23,-10.55 -0.699427,-2.116459 -1.826029,-4.066741 -3.31,-5.73 2.43,0.75 4.67,1.58 6.36,2.21 4.2,1.55 11.19,3.71 16.3,7.4 6.07,4.36 9,9.41 11.28,13.81 3.46,6.78 9.39,12.73 12,13.4 0.527661,0.110001 1.072339,0.110001 1.6,0 2.35,2.21 4.32,3.75 5.26,5.35 -1.86,-0.59 -4.63,0 -7,3.44 -1.93,2.81 -1.56,4.77 -0.31,5.91 -4.89,1.2 -11.62,0.45 -19.66,-2.45 -11.79,-4.23 -17.72,-9.62 -26.41,-8.26 -5.23,0.83 -13.738996,3.076811 -15.018996,3.526811 1.31,0 11.528996,-2.326811 15.028996,-2.366811 11.9,-0.15 15.26,6.08 26.76,9.82 7.67,2.49 16.32,2.65 22.15,0.88 0.67268,0.06068 1.350781,-0.0037 2,-0.19 2.167703,-0.498671 3.951368,-2.0318 4.77,-4.1 0.423417,-1.249938 0.395108,-2.608781 -0.08,-3.84 z"
       id="path15"
       style="display:inline"
       sodipodi:nodetypes="ccssccccccccccccccccccccccccccccccccccccc"
       inkscape:label="badger_front" /></g><metadata
     id="metadata198"><rdf:RDF><cc:Work
         rdf:about=""><dc:title>logo-04</dc:title></cc:Work></rdf:RDF></metadata></svg>
