<svg xmlns="http://www.w3.org/2000/svg" xmlns:xlink="http://www.w3.org/1999/xlink" viewBox="0 0 105 93"><defs><style>.f18aa20b-197f-4ff1-b9fc-b2821f0ef95b{fill:#0f0303;}.bcf19d4a-7bc4-4504-8dfc-4b8784317d9e{opacity:0.8;fill:url(#af08b012-d976-4636-b321-c65e95673e01);}</style><linearGradient id="af08b012-d976-4636-b321-c65e95673e01" x1="76.61" y1="8.01" x2="30.93" y2="87.13" gradientUnits="userSpaceOnUse"><stop offset="0" stop-color="#c39ec1"/><stop offset="0.99" stop-color="#076aab"/></linearGradient></defs><title>logo-04</title><g id="fb3019b2-688f-4dd8-b720-eea929932b51" data-name="Ebene 2"><path class="f18aa20b-197f-4ff1-b9fc-b2821f0ef95b" d="M93.91,34.09c-6.59-5.63-11-17-21.73-20.86a5.42,5.42,0,0,0-.91-.33c-.79-.25-1.56-.48-2.32-.7-1.48-2.13-4.77-6.45-7-6.3C60.28,6,59.41,8.13,59,10a57.1,57.1,0,0,0-12.83-.52,22.33,22.33,0,0,0-3.17-1c-3.33-.79-5.08,0-5.78,1.62-9.83.13-16-2.23-16-2.23A31.1,31.1,0,0,0,36.8,12a13,13,0,0,0,2.35,6.88c-7.51,1.15-15.89,2.5-15.89,2.5a34.92,34.92,0,0,0,13.18,3.56c7.36.24,14.37-1.87,28.63,7.53,3.72,2.46,6.92,6.83,11.73,9.79,6.68,4.1,12.58,5.2,13.94,3.34,1.56-2.12-4.15-4.62-8.94-9.77-3.82-4.12-7-9.09-10-11.82a25.19,25.19,0,0,0-17.08-7,14.36,14.36,0,0,0-3.56-4.58c2.19.36,4.24.81,5.78,1.15,3.84.84,10.17,1.87,15.07,4.45A31.44,31.44,0,0,1,83.51,28.69c3.82,5.47,9.7,9.92,12,10.19a3.74,3.74,0,0,0,1.66-.29c2,1.37,3.7,2.37,4.6,3.52-1.69-.45-4.23.25-6,3.78-1.41,2.81-.71,4.5.65,5.29-4.06,1.6-9.9,1.8-17.12.37-1.48-.3-11.33-2.73-12.64-3.07l.83,2.06s7.17,2,9.63,2.61a38,38,0,0,0,21.18-1.43,5,5,0,0,0,2.28-.41,5.89,5.89,0,0,0,3.66-4.13,3,3,0,0,0,.11-1c0-.11,0-.23,0-.34C104.31,40.83,99.32,38.71,93.91,34.09Z"/><path class="f18aa20b-197f-4ff1-b9fc-b2821f0ef95b" d="M87.92,78.09c-.74-4.35-5.23-7.49-9.77-12.73-6.68-7.7-9.65-21.83-22-27.82l0,0a4.7,4.7,0,0,0-.61-.29l-.08,0L53,36c-1.35-2.65-4.35-8-6.88-8.16-1.8-.13-3.08,1.88-3.88,3.79a54.45,54.45,0,0,0-14.78-2.41,25.61,25.61,0,0,0-3.19-1.48c-3.79-1.48-5.91-.69-6.9,1.13-7.61-.44-9-1.2-9.21-1.32a21.91,21.91,0,0,0,8.59,3.28,15.11,15.11,0,0,0,1.6,8.08c-8.42.15-17.68.39-17.68.39a34.41,34.41,0,0,0,13.65,6c8.27,1.43,16.53.15,31.14,13,3.82,3.36,6.74,8.8,11.71,12.89,6.9,5.69,13.38,7.86,15.21,6,2.09-2.14-4-5.87-8.55-12.44-3.68-5.25-6.42-11.35-9.4-14.92A28.72,28.72,0,0,0,36.2,39.28a16.28,16.28,0,0,0-3.31-5.73c2.43.75,4.67,1.58,6.36,2.21,4.2,1.55,11.19,3.71,16.3,7.4,6.07,4.36,9,9.41,11.28,13.81,3.46,6.78,9.39,12.73,12,13.4a3.92,3.92,0,0,0,1.6,0c2.35,2.21,4.32,3.75,5.26,5.35-1.86-.59-4.63,0-7,3.44-1.93,2.81-1.56,4.77-.31,5.91-4.89,1.2-11.62.45-19.66-2.45C46.93,78.39,41,73,32.31,74.36c-5.23.83-13.82,2.85-15.1,3.3,1.31,0,11.61-2.1,15.11-2.14,11.9-.15,15.26,6.08,26.76,9.82,7.67,2.49,16.32,2.65,22.15.88a5.47,5.47,0,0,0,2-.19A6.76,6.76,0,0,0,88,81.93,5.64,5.64,0,0,0,87.92,78.09Z"/><path class="f18aa20b-197f-4ff1-b9fc-b2821f0ef95b" d="M8.12,27.56h0Z"/><path class="bcf19d4a-7bc4-4504-8dfc-4b8784317d9e" d="M25.74,9.06a45.68,45.68,0,0,1,70.65,27c-.81-.62-1.64-1.28-2.48-2-6.59-5.63-11-17-21.73-20.86a5.42,5.42,0,0,0-.91-.33c-.79-.25-1.56-.48-2.32-.7-1.48-2.13-4.77-6.45-7-6.3C60.28,6,59.41,8.13,59,10a57.1,57.1,0,0,0-12.83-.52,22.33,22.33,0,0,0-3.17-1c-3.33-.79-5.08,0-5.78,1.62A54.43,54.43,0,0,1,25.74,9.06ZM77.11,53.15c-1.64-.41-5.37-1.43-7.68-2.07,3,5.16,5.44,10.5,8.72,14.28,3.65,4.21,7.26,7.07,8.93,10.29A45.79,45.79,0,0,0,97.26,52.1,38.29,38.29,0,0,1,77.11,53.15Zm-18,32.19c-11.5-3.74-14.86-10-26.76-9.82-2.65,0-9.17,1.25-12.77,1.83l-1,.35a45.66,45.66,0,0,0,53.7,9.7A43.42,43.42,0,0,1,59.08,85.34Z"/></g></svg>